<?xml version="1.0" encoding="UTF-8" standalone="no"?>
<!-- Generator: Adobe Illustrator 14.0.0, SVG Export Plug-In . SVG Version: 6.00 Build 43363)  -->

<svg
   xmlns:dc="http://purl.org/dc/elements/1.1/"
   xmlns:cc="http://creativecommons.org/ns#"
   xmlns:rdf="http://www.w3.org/1999/02/22-rdf-syntax-ns#"
   xmlns:svg="http://www.w3.org/2000/svg"
   xmlns="http://www.w3.org/2000/svg"
   xmlns:sodipodi="http://sodipodi.sourceforge.net/DTD/sodipodi-0.dtd"
   xmlns:inkscape="http://www.inkscape.org/namespaces/inkscape"
   version="1.0"
   id="girl"
   x="0px"
   y="0px"
   width="45.833"
   height="100"
   viewBox="0 0 45.833 100"
   enable-background="new 0 0 45.833 100"
   xml:space="preserve"
   inkscape:version="0.48.3.1 r9886"
   sodipodi:docname="girl.svg"><metadata
   id="metadata11"><rdf:RDF><cc:Work
       rdf:about=""><dc:format>image/svg+xml</dc:format><dc:type
         rdf:resource="http://purl.org/dc/dcmitype/StillImage" /><dc:title /></cc:Work></rdf:RDF></metadata><defs
   id="defs9" /><sodipodi:namedview
   pagecolor="#ffffff"
   bordercolor="#666666"
   borderopacity="1"
   objecttolerance="10"
   gridtolerance="10"
   guidetolerance="10"
   inkscape:pageopacity="0"
   inkscape:pageshadow="2"
   inkscape:window-width="1366"
   inkscape:window-height="721"
   id="namedview7"
   showgrid="false"
   inkscape:zoom="2.36"
   inkscape:cx="22.9165"
   inkscape:cy="50"
   inkscape:window-x="0"
   inkscape:window-y="25"
   inkscape:window-maximized="1"
   inkscape:current-layer="girl" />

<g
   id="g2992"
   inkscape:label="#g2988"><path
     id="path3"
     d="m 29.775,18.047 c 5.697,0 8.008,4.695 8.871,7.283 l 6.999,23.008 c 1.396,4.949 -4.899,6.998 -6.4,2.175 L 32.947,29.388 H 31.114 L 42.03,66.966 H 31.973 v 29.296 c 0,4.996 -7.514,4.971 -7.514,0 V 66.774 h -3.063 l 0.005,29.447 c 0,5.037 -7.545,5.037 -7.545,0 L 13.854,66.966 H 3.765 L 14.596,29.388 h -1.694 l -6.299,21.2 c -1.5,4.621 -7.85,2.724 -6.396,-2.228 L 7.2,25.33 c 0.749,-2.625 3.045,-7.283 8.795,-7.283 h 13.78 z"
     inkscape:connector-curvature="0" /><circle
     id="circle5"
     r="8.1639996"
     cy="8.1639996"
     cx="22.924999"
     sodipodi:cx="22.924999"
     sodipodi:cy="8.1639996"
     sodipodi:rx="8.1639996"
     sodipodi:ry="8.1639996" /></g>
</svg>